<svg xmlns="http://www.w3.org/2000/svg" xmlns:xlink="http://www.w3.org/1999/xlink" width="1920" zoomAndPan="magnify" viewBox="0 0 1440 809.999993" height="1080" preserveAspectRatio="xMidYMid meet" version="1.0"><defs><clipPath id="3ffd73bb7c"><path d="M 73.210938 32.683594 L 815.710938 32.683594 L 815.710938 532 L 73.210938 532 Z M 73.210938 32.683594 " clip-rule="nonzero"/></clipPath></defs><path fill="#c8d9d3" d="M 522.480469 501.296875 C 460.167969 501.296875 409.65625 450.785156 409.65625 388.472656 C 409.65625 326.160156 460.167969 275.644531 522.480469 275.644531 C 584.792969 275.644531 635.308594 326.160156 635.308594 388.472656 C 635.308594 450.785156 584.792969 501.296875 522.480469 501.296875 Z M 522.480469 501.296875 " fill-opacity="1" fill-rule="nonzero"/><path fill="#c8d9d3" d="M 270.4375 222.59375 C 219.980469 222.59375 179.074219 181.6875 179.074219 131.230469 C 179.074219 80.769531 219.980469 39.867188 270.4375 39.867188 C 320.894531 39.867188 361.800781 80.769531 361.800781 131.230469 C 361.800781 181.6875 320.894531 222.59375 270.4375 222.59375 Z M 270.4375 222.59375 " fill-opacity="1" fill-rule="nonzero"/><g clip-path="url(#3ffd73bb7c)"><path fill="#687dac" d="M 193.996094 531.328125 C 200.023438 531.328125 205.109375 526.671875 205.550781 520.5625 C 206.015625 514.175781 201.210938 508.621094 194.820312 508.160156 C 152.652344 505.089844 119.617188 469.5 119.617188 427.140625 C 119.617188 417.734375 121.246094 408.546875 124.464844 399.835938 C 126.414062 394.566406 124.304688 388.652344 119.46875 385.808594 C 105.035156 377.324219 96.414062 362.414062 96.414062 345.929688 C 96.414062 329.183594 105.636719 313.695312 120.464844 305.492188 C 123.71875 303.703125 125.902344 300.460938 126.367188 296.78125 C 126.832031 293.097656 125.496094 289.414062 122.789062 286.878906 C 113.261719 277.9375 108.015625 265.953125 108.015625 253.117188 C 108.015625 237.515625 115.820312 223.046875 128.90625 214.425781 C 133.097656 211.660156 135.035156 206.492188 133.699219 201.644531 C 132.054688 195.683594 131.21875 189.578125 131.21875 183.507812 C 131.21875 145.121094 162.441406 113.894531 200.828125 113.894531 C 205.867188 113.894531 210.945312 114.464844 215.90625 115.585938 C 221.515625 116.886719 227.238281 113.78125 229.296875 108.402344 C 241.261719 76.984375 271.785156 55.886719 305.242188 55.886719 C 327.367188 55.886719 348.011719 64.644531 363.386719 80.542969 C 365.890625 83.113281 369.46875 84.394531 373.015625 84.007812 C 376.585938 83.601562 379.78125 81.574219 381.636719 78.492188 C 390.238281 64.339844 405.042969 55.886719 421.257812 55.886719 C 433.96875 55.886719 445.867188 60.996094 454.769531 70.289062 C 458.953125 74.648438 465.75 75.082031 470.441406 71.285156 C 482.722656 61.359375 498.21875 55.886719 514.070312 55.886719 C 545.082031 55.886719 571.851562 75.816406 580.6875 105.488281 C 581.730469 109 584.371094 111.8125 587.804688 113.070312 C 591.261719 114.328125 595.078125 113.894531 598.148438 111.902344 C 607.765625 105.613281 618.8125 102.296875 630.085938 102.296875 C 658.511719 102.296875 683.113281 123.425781 687.289062 151.453125 C 688.019531 156.335938 691.75 160.222656 696.601562 161.140625 C 718.5625 165.308594 734.5 184.46875 734.5 206.707031 C 734.5 209.734375 734.128906 213.03125 733.34375 216.78125 C 732.703125 219.898438 733.367188 223.148438 735.195312 225.765625 C 737.027344 228.382812 739.847656 230.128906 743 230.605469 C 771.21875 234.796875 792.511719 259.4375 792.511719 287.921875 C 792.511719 301.890625 787.480469 315.316406 778.335938 325.75 C 775.296875 329.21875 774.597656 334.144531 776.554688 338.328125 C 779.449219 344.488281 780.910156 350.949219 780.910156 357.53125 C 780.910156 383.125 760.09375 403.9375 734.5 403.9375 C 730.863281 403.9375 727.089844 403.335938 721.902344 401.910156 C 716.148438 400.355469 710.152344 403.382812 708.011719 408.945312 C 699.105469 432.160156 673.492188 445.164062 648.371094 435.558594 C 643.25 433.621094 637.40625 435.523438 634.449219 440.179688 C 625.78125 453.808594 611.144531 461.945312 595.28125 461.945312 C 579.964844 461.945312 565.632812 454.34375 556.953125 441.597656 C 554.789062 438.421875 551.210938 436.53125 547.367188 436.53125 C 547.324219 436.53125 547.289062 436.53125 547.242188 436.53125 C 543.367188 436.578125 539.765625 438.550781 537.648438 441.800781 C 524.710938 461.683594 502.886719 473.546875 479.265625 473.546875 C 467.289062 473.546875 455.382812 470.386719 444.859375 464.390625 C 442.023438 462.78125 438.671875 462.421875 435.566406 463.429688 C 432.472656 464.425781 429.9375 466.679688 428.578125 469.636719 C 421.019531 486.109375 404.480469 496.75 386.453125 496.75 C 367.148438 496.75 349.710938 484.480469 343.058594 466.214844 C 340.875 460.199219 334.1875 457.09375 328.195312 459.28125 C 322.167969 461.46875 319.0625 468.128906 321.261719 474.148438 C 331.230469 501.542969 357.4375 519.953125 386.453125 519.953125 C 409.519531 519.953125 430.957031 508.363281 443.804688 489.65625 C 455.042969 494.3125 467.121094 496.75 479.265625 496.75 C 505.6875 496.75 530.40625 485.632812 547.867188 466.429688 C 560.613281 478.339844 577.492188 485.148438 595.28125 485.148438 C 616.105469 485.148438 635.503906 475.867188 648.703125 459.9375 C 679.574219 467.597656 710.683594 452.890625 725.402344 426.414062 C 728.222656 426.84375 731.285156 427.140625 734.5 427.140625 C 772.882812 427.140625 804.109375 395.914062 804.109375 357.53125 C 804.109375 349.949219 802.851562 342.507812 800.347656 335.324219 C 810.296875 321.625 815.710938 305.050781 815.710938 287.921875 C 815.710938 251.902344 791.410156 220.257812 757.601562 210.140625 C 757.667969 208.984375 757.703125 207.84375 757.703125 206.707031 C 757.703125 176.027344 737.515625 149.246094 708.691406 140.28125 C 699.742188 104.902344 667.257812 79.089844 630.085938 79.089844 C 619.007812 79.089844 608.09375 81.367188 597.945312 85.753906 C 582.851562 53.519531 550.675781 32.683594 514.070312 32.683594 C 496.273438 32.683594 478.824219 37.851562 463.960938 47.390625 C 451.78125 37.851562 436.9375 32.683594 421.257812 32.683594 C 401.511719 32.683594 383.179688 40.957031 370.105469 55.332031 C 351.761719 40.648438 329.167969 32.683594 305.242188 32.683594 C 265.441406 32.683594 228.867188 55.886719 211.453125 91.316406 C 207.917969 90.898438 204.375 90.691406 200.828125 90.691406 C 149.652344 90.691406 108.015625 132.328125 108.015625 183.507812 C 108.015625 189.011719 108.523438 194.53125 109.53125 199.980469 C 93.921875 213.121094 84.8125 232.449219 84.8125 253.117188 C 84.8125 267.46875 89.386719 281.507812 97.671875 293.1875 C 82.328125 306.25 73.210938 325.457031 73.210938 345.929688 C 73.210938 367.578125 83.042969 387.394531 99.914062 400.527344 C 97.589844 409.160156 96.414062 418.074219 96.414062 427.140625 C 96.414062 481.601562 138.898438 527.363281 193.144531 531.292969 C 193.429688 531.316406 193.710938 531.328125 193.996094 531.328125 Z M 193.996094 531.328125 " fill-opacity="1" fill-rule="nonzero"/></g><path fill="#687dac" d="M 200.828125 276.320312 C 207.238281 276.320312 212.429688 271.128906 212.429688 264.71875 C 212.429688 258.304688 207.238281 253.117188 200.828125 253.117188 C 169.433594 253.117188 141.800781 231.984375 133.628906 201.734375 C 131.953125 195.539062 125.550781 191.890625 119.402344 193.554688 C 113.214844 195.230469 109.554688 201.597656 111.21875 207.785156 C 122.132812 248.140625 158.976562 276.320312 200.828125 276.320312 Z M 200.828125 276.320312 " fill-opacity="1" fill-rule="nonzero"/><path fill="#687dac" d="M 341.371094 234.21875 C 342.878906 234.21875 344.410156 233.921875 345.882812 233.300781 C 358.296875 228.054688 369.46875 220.53125 379.078125 210.945312 C 388.671875 201.328125 396.195312 190.15625 401.441406 177.738281 C 406.890625 164.878906 409.65625 151.203125 409.65625 137.097656 C 409.65625 130.15625 408.964844 123.210938 407.617188 116.457031 C 406.269531 109.804688 404.296875 103.316406 401.738281 97.152344 C 399.210938 91.042969 396.070312 85.140625 392.425781 79.625 C 388.84375 74.1875 384.695312 69.03125 380.109375 64.316406 C 375.632812 59.742188 368.292969 59.617188 363.703125 64.089844 C 359.113281 68.554688 359.011719 75.90625 363.476562 80.496094 C 367.046875 84.167969 370.261719 88.167969 373.0625 92.402344 C 375.90625 96.710938 378.328125 101.285156 380.300781 106.035156 C 382.285156 110.824219 383.824219 115.867188 384.867188 121.035156 C 385.921875 126.269531 386.453125 131.683594 386.453125 137.097656 C 386.453125 148.078125 384.3125 158.714844 380.074219 168.710938 C 375.996094 178.363281 370.136719 187.050781 362.660156 194.53125 C 355.195312 201.996094 346.503906 207.855469 336.863281 211.933594 C 330.960938 214.425781 328.195312 221.234375 330.6875 227.125 C 332.558594 231.554688 336.851562 234.21875 341.371094 234.21875 Z M 341.371094 234.21875 " fill-opacity="1" fill-rule="nonzero"/><path fill="#687dac" d="M 113.476562 407.300781 C 118.234375 407.300781 122.6875 404.355469 124.398438 399.621094 C 125.777344 395.78125 127.488281 391.972656 129.472656 388.324219 C 131.421875 384.753906 133.664062 381.289062 136.144531 378.027344 C 138.628906 374.761719 141.359375 371.679688 144.246094 368.882812 C 147.148438 366.0625 150.308594 363.421875 153.648438 361.019531 C 156.980469 358.652344 160.515625 356.5 164.164062 354.652344 C 167.824219 352.792969 171.6875 351.195312 175.628906 349.90625 C 179.640625 348.601562 183.765625 347.605469 187.890625 346.949219 C 197.519531 345.40625 207.703125 345.621094 217.1875 347.582031 C 222.421875 348.648438 227.542969 350.246094 232.449219 352.308594 C 237.21875 354.324219 241.851562 356.851562 246.226562 359.796875 C 250.496094 362.675781 254.550781 366.015625 258.269531 369.722656 C 262.8125 374.242188 270.152344 374.242188 274.675781 369.699219 C 279.195312 365.167969 279.195312 357.8125 274.652344 353.292969 C 269.894531 348.546875 264.691406 344.261719 259.199219 340.558594 C 253.589844 336.773438 247.617188 333.535156 241.46875 330.941406 C 235.167969 328.265625 228.5625 326.226562 221.855469 324.855469 C 209.675781 322.328125 196.625 322.058594 184.21875 324.039062 C 178.914062 324.890625 173.613281 326.167969 168.4375 327.847656 C 163.359375 329.511719 158.398438 331.5625 153.660156 333.964844 C 148.972656 336.34375 144.429688 339.097656 140.15625 342.15625 C 135.851562 345.238281 131.796875 348.625 128.078125 352.238281 C 124.386719 355.820312 120.875 359.773438 117.679688 363.976562 C 114.496094 368.167969 111.605469 372.621094 109.101562 377.222656 C 106.542969 381.921875 104.34375 386.816406 102.554688 391.78125 C 100.390625 397.808594 103.515625 404.445312 109.554688 406.621094 C 110.847656 407.085938 112.171875 407.300781 113.476562 407.300781 Z M 113.476562 407.300781 " fill-opacity="1" fill-rule="nonzero"/><path fill="#687dac" d="M 560.476562 171.902344 C 566.890625 171.902344 572.078125 166.714844 572.078125 160.304688 C 572.078125 140.738281 581.84375 122.621094 598.214844 111.835938 C 603.5625 108.3125 605.035156 101.117188 601.511719 95.757812 C 597.988281 90.433594 590.804688 88.949219 585.4375 92.460938 C 562.539062 107.550781 548.875 132.917969 548.875 160.304688 C 548.875 166.714844 554.066406 171.902344 560.476562 171.902344 Z M 560.476562 171.902344 " fill-opacity="1" fill-rule="nonzero"/><path fill="#687dac" d="M 547.335938 459.824219 C 551.117188 459.824219 554.824219 457.980469 557.054688 454.582031 C 559.421875 450.953125 561.566406 447.113281 563.421875 443.148438 C 565.269531 439.171875 566.84375 435.023438 568.125 430.789062 C 569.425781 426.527344 570.414062 422.097656 571.070312 417.644531 C 571.738281 413.113281 572.078125 408.503906 572.078125 403.9375 C 572.078125 391.441406 569.621094 379.285156 564.78125 367.816406 C 560.101562 356.757812 553.417969 346.835938 544.898438 338.316406 C 536.378906 329.785156 526.441406 323.097656 515.394531 318.421875 C 509.492188 315.925781 502.683594 318.679688 500.191406 324.582031 C 497.699219 330.484375 500.453125 337.296875 506.355469 339.789062 C 514.636719 343.300781 522.089844 348.320312 528.492188 354.71875 C 534.882812 361.121094 539.902344 368.566406 543.414062 376.847656 C 547.039062 385.433594 548.875 394.554688 548.875 403.9375 C 548.875 407.371094 548.613281 410.847656 548.117188 414.269531 C 547.628906 417.589844 546.894531 420.875 545.917969 424.058594 C 544.957031 427.265625 543.765625 430.378906 542.394531 433.335938 C 541.011719 436.292969 539.402344 439.171875 537.636719 441.867188 C 534.136719 447.226562 535.628906 454.421875 540.988281 457.933594 C 542.949219 459.214844 545.160156 459.824219 547.335938 459.824219 Z M 547.335938 459.824219 " fill-opacity="1" fill-rule="nonzero"/><path fill="#687dac" d="M 640.519531 287.808594 C 641.214844 287.808594 641.902344 287.75 642.609375 287.625 C 648.90625 286.480469 653.097656 280.441406 651.953125 274.132812 C 645.933594 240.992188 618.757812 206.707031 583.679688 206.707031 C 577.265625 206.707031 572.078125 211.898438 572.078125 218.3125 C 572.078125 224.722656 577.265625 229.914062 583.679688 229.914062 C 605.601562 229.914062 624.875 254.917969 629.113281 278.277344 C 630.132812 283.875 635.015625 287.808594 640.519531 287.808594 Z M 640.519531 287.808594 " fill-opacity="1" fill-rule="nonzero"/><path fill="#687dac" d="M 548.875 299.523438 L 592.394531 299.523438 C 628.816406 299.523438 664.304688 281.847656 689.738281 251.03125 C 700.808594 237.605469 717.117188 229.914062 734.5 229.914062 C 737.386719 229.914062 740.222656 230.117188 742.988281 230.535156 C 749.457031 231.40625 755.230469 227.113281 756.183594 220.78125 C 757.125 214.4375 752.765625 208.535156 746.433594 207.582031 C 742.542969 207.003906 738.53125 206.707031 734.5 206.707031 C 710.175781 206.707031 687.335938 217.484375 671.839844 236.257812 C 650.832031 261.714844 621.871094 276.320312 592.390625 276.320312 L 548.875 276.320312 C 536.085938 276.320312 525.671875 265.90625 525.671875 253.117188 C 525.671875 246.703125 520.484375 241.515625 514.070312 241.515625 C 507.65625 241.515625 502.46875 246.703125 502.46875 253.117188 C 502.46875 278.710938 523.28125 299.523438 548.875 299.523438 Z M 548.875 299.523438 " fill-opacity="1" fill-rule="nonzero"/><path fill="#687dac" d="M 490.867188 415.539062 C 493.984375 415.539062 497.085938 414.292969 499.363281 411.832031 C 514.015625 396.0625 534.804688 389.308594 554.980469 393.683594 C 561.304688 395.054688 567.433594 391.089844 568.792969 384.835938 C 570.164062 378.570312 566.199219 372.382812 559.945312 371.023438 C 531.644531 364.839844 502.648438 374.183594 482.371094 396.039062 C 478.007812 400.742188 478.28125 408.082031 482.96875 412.433594 C 485.203125 414.507812 488.035156 415.539062 490.867188 415.539062 Z M 490.867188 415.539062 " fill-opacity="1" fill-rule="nonzero"/><path fill="#687dac" d="M 236.4375 353.007812 C 239.746094 353.007812 243.03125 351.605469 245.328125 348.875 C 270.550781 318.894531 303.167969 299.523438 328.445312 299.523438 C 334.859375 299.523438 340.046875 294.332031 340.046875 287.921875 C 340.046875 281.507812 334.859375 276.320312 328.445312 276.320312 C 296.121094 276.320312 257.464844 298.398438 227.566406 333.941406 C 223.441406 338.847656 224.074219 346.167969 228.980469 350.289062 C 231.15625 352.113281 233.808594 353.007812 236.4375 353.007812 Z M 236.4375 353.007812 " fill-opacity="1" fill-rule="nonzero"/><path fill="#687dac" d="M 421.191406 195.128906 C 441.582031 195.128906 461.75 185.679688 476.613281 167.691406 C 480.691406 162.75 479.992188 155.429688 475.050781 151.351562 C 470.089844 147.285156 462.792969 147.988281 458.714844 152.917969 C 442.105469 173.039062 417.167969 177.683594 396.683594 164.472656 C 391.289062 161.003906 384.128906 162.546875 380.640625 167.9375 C 377.171875 173.332031 378.726562 180.503906 384.109375 183.980469 C 395.753906 191.480469 408.511719 195.128906 421.191406 195.128906 Z M 421.191406 195.128906 " fill-opacity="1" fill-rule="nonzero"/><path fill="#687dac" d="M 263.308594 577.699219 C 264.566406 577.699219 265.835938 577.667969 267.09375 577.585938 C 279.171875 576.839844 290.773438 572.625 301.570312 565.078125 C 327.164062 547.3125 332.683594 520.699219 337.554688 497.226562 C 339.195312 489.351562 340.882812 481.214844 343.242188 473.625 C 345.144531 467.507812 341.722656 461.003906 335.605469 459.101562 C 329.464844 457.230469 322.984375 460.628906 321.082031 466.738281 C 318.382812 475.394531 316.582031 484.09375 314.835938 492.5 C 310.273438 514.515625 306.328125 533.527344 288.304688 546.042969 C 281.019531 551.132812 273.417969 553.941406 265.65625 554.429688 C 245.5 555.539062 222.171875 540.242188 203.546875 513.15625 C 199.910156 507.875 192.679688 506.539062 187.414062 510.164062 C 182.132812 513.800781 180.796875 521.015625 184.421875 526.296875 C 207.023438 559.164062 235.574219 577.699219 263.308594 577.699219 Z M 263.308594 577.699219 " fill-opacity="1" fill-rule="nonzero"/><path fill="#687dac" d="M 280.691406 708.457031 C 302 708.457031 322.203125 695.984375 331.199219 675.757812 L 345.078125 644.511719 C 349.789062 633.988281 356.835938 624.457031 365.414062 617 C 374.09375 609.4375 384.199219 603.960938 395.472656 600.710938 C 424.488281 592.472656 448.257812 571.820312 460.628906 544.050781 L 484.761719 489.621094 C 487.355469 483.765625 484.714844 476.910156 478.859375 474.316406 C 472.976562 471.699219 466.136719 474.363281 463.550781 480.21875 L 439.429688 534.625 C 429.867188 556.070312 411.515625 572.035156 389.082031 578.402344 C 374.488281 582.605469 361.414062 589.710938 350.175781 599.5 C 339.082031 609.136719 329.984375 621.433594 323.890625 635.050781 L 309.988281 666.332031 C 303.578125 680.769531 287.304688 688.425781 272.089844 684.039062 C 263.492188 681.578125 256.511719 675.839844 252.445312 667.875 C 248.390625 659.90625 247.835938 650.890625 250.894531 642.484375 L 277.28125 569.972656 C 279.476562 563.957031 276.375 557.296875 270.347656 555.109375 C 264.363281 552.921875 257.667969 556.015625 255.480469 562.042969 L 229.09375 634.550781 C 223.882812 648.851562 224.855469 664.847656 231.78125 678.410156 C 238.703125 691.984375 251.074219 702.171875 265.722656 706.359375 C 270.6875 707.777344 275.714844 708.457031 280.691406 708.457031 Z M 280.691406 708.457031 " fill-opacity="1" fill-rule="nonzero"/><path fill="#687dac" d="M 718.832031 425 C 723.898438 425 728.550781 421.65625 729.996094 416.523438 C 731.726562 410.359375 728.121094 403.960938 721.945312 402.226562 C 702.019531 396.640625 688.097656 378.261719 688.097656 357.53125 C 688.097656 351.117188 682.902344 345.929688 676.492188 345.929688 C 670.078125 345.929688 664.890625 351.117188 664.890625 357.53125 C 664.890625 388.617188 685.785156 416.183594 715.691406 424.566406 C 716.734375 424.863281 717.789062 425 718.832031 425 Z M 718.832031 425 " fill-opacity="1" fill-rule="nonzero"/><path fill="#687dac" d="M 177.625 392.335938 C 184.035156 392.335938 189.226562 387.144531 189.226562 380.734375 C 189.226562 362.546875 180.660156 345.363281 166.304688 334.746094 C 161.152344 330.917969 153.886719 332.039062 150.082031 337.171875 C 146.261719 342.324219 147.351562 349.585938 152.507812 353.394531 C 161.09375 359.75 166.023438 369.710938 166.023438 380.734375 C 166.023438 387.144531 171.210938 392.335938 177.625 392.335938 Z M 177.625 392.335938 " fill-opacity="1" fill-rule="nonzero"/><path fill="#687dac" d="M 193.996094 531.328125 C 196.226562 531.328125 198.480469 530.683594 200.476562 529.34375 C 205.789062 525.753906 207.183594 518.546875 203.601562 513.234375 C 192.816406 497.257812 201.574219 469.183594 208.257812 463.597656 C 213.175781 459.496094 213.84375 452.179688 209.730469 447.261719 C 205.640625 442.34375 198.335938 441.664062 193.394531 445.789062 C 177.398438 459.125 166.996094 500.464844 184.363281 526.21875 C 186.609375 529.539062 190.269531 531.328125 193.996094 531.328125 Z M 193.996094 531.328125 " fill-opacity="1" fill-rule="nonzero"/><path fill="#687dac" d="M 511.917969 665.625 L 513.976562 665.625 L 543.992188 587.585938 L 572.367188 588.40625 L 573.191406 676.710938 L 577.097656 729.695312 L 549.339844 729.695312 L 550.367188 676.300781 L 548.105469 622.292969 L 523.433594 690.265625 L 498.144531 691.5 L 475.113281 622.292969 L 473.265625 676.300781 L 474.703125 729.695312 L 449.207031 729.695312 L 452.085938 679.792969 L 453.320312 591.691406 L 486.011719 586.558594 Z M 635.09375 586.96875 L 632.214844 676.300781 L 634.679688 729.695312 L 605.894531 729.695312 L 608.363281 679.792969 L 605.894531 592.105469 Z M 776.707031 587.585938 L 774.03125 676.300781 L 776.292969 725.179688 L 752.03125 730.3125 L 690.761719 631.328125 L 690.761719 676.300781 L 693.640625 729.695312 L 667.9375 729.695312 L 670.40625 679.792969 L 667.9375 588.613281 L 692.613281 587.378906 L 753.679688 687.800781 L 751.621094 590.667969 Z M 851.847656 731.953125 C 842.113281 731.953125 828.0625 731.203125 809.695312 729.695312 L 812.164062 679.792969 L 809.695312 587.996094 L 864.59375 587.996094 C 883.097656 587.996094 897.558594 593.542969 907.976562 604.628906 C 918.394531 615.71875 923.601562 631.121094 923.601562 650.835938 C 923.601562 675.753906 917.160156 695.539062 904.277344 710.1875 C 891.390625 724.699219 873.914062 731.953125 851.847656 731.953125 Z M 857.191406 610.175781 C 848.144531 610.175781 841.769531 610.242188 838.070312 610.382812 L 836.015625 676.300781 L 837.453125 709.570312 C 848.96875 710.390625 856.710938 710.804688 860.6875 710.804688 C 871.515625 710.804688 880.015625 706.421875 886.183594 697.660156 C 892.488281 688.898438 895.640625 676.164062 895.640625 659.460938 C 895.640625 642.757812 892.554688 630.371094 886.386719 622.292969 C 880.355469 614.214844 870.625 610.175781 857.191406 610.175781 Z M 857.191406 610.175781 " fill-opacity="1" fill-rule="nonzero"/><path fill="#84a29f" d="M 978.289062 732.050781 C 963.59375 732.050781 951.21875 725.898438 941.160156 713.589844 C 931.097656 701.28125 926.070312 686.195312 926.070312 668.328125 C 926.070312 646.492188 932.089844 628.09375 944.136719 613.140625 C 956.316406 598.183594 971.207031 590.707031 988.8125 590.707031 C 995.695312 590.707031 1002.046875 591.433594 1007.871094 592.890625 C 1013.828125 594.214844 1018.0625 595.605469 1020.578125 597.058594 L 1024.152344 599.242188 L 1010.652344 626.835938 C 1007.605469 624.191406 1003.304688 621.742188 997.746094 619.492188 C 992.1875 617.109375 987.15625 615.917969 982.65625 615.917969 C 973.523438 615.917969 966.175781 619.691406 960.617188 627.234375 C 955.1875 634.777344 952.476562 645.5625 952.476562 659.59375 C 952.476562 673.488281 955.320312 684.9375 961.011719 693.9375 C 966.707031 702.804688 974.449219 707.238281 984.246094 707.238281 C 990.597656 707.238281 996.355469 705.25 1001.519531 701.28125 C 1006.679688 697.308594 1010.320312 692.015625 1012.4375 685.398438 L 1028.917969 694.929688 C 1024.550781 706.574219 1017.867188 715.707031 1008.863281 722.324219 C 999.863281 728.808594 989.671875 732.050781 978.289062 732.050781 Z M 1125.570312 730.859375 L 1115.839844 692.148438 L 1068.386719 692.148438 L 1057.863281 729.867188 L 1032.449219 727.882812 L 1049.921875 679.640625 L 1076.527344 594.28125 L 1112.070312 591.699219 L 1137.683594 676.664062 L 1154.160156 726.492188 Z M 1094.199219 617.507812 L 1091.617188 617.507812 L 1074.542969 671.105469 L 1109.882812 671.105469 Z M 1208.480469 677.0625 L 1197.164062 677.0625 L 1197.164062 678.253906 L 1199.546875 729.867188 L 1172.941406 729.867188 L 1175.324219 681.628906 L 1172.941406 592.890625 L 1216.027344 592.890625 C 1228.734375 592.890625 1238.859375 596.332031 1246.40625 603.214844 C 1253.949219 610.09375 1257.722656 619.226562 1257.722656 630.609375 C 1257.722656 639.210938 1255.472656 647.085938 1250.972656 654.234375 C 1246.601562 661.246094 1240.644531 666.804688 1233.101562 670.90625 L 1267.648438 719.742188 L 1243.625 732.050781 L 1212.652344 676.863281 C 1211.722656 676.996094 1210.332031 677.0625 1208.480469 677.0625 Z M 1208.878906 612.941406 L 1199.148438 612.941406 L 1197.757812 657.804688 L 1211.261719 657.804688 C 1217.878906 657.804688 1222.976562 655.621094 1226.550781 651.253906 C 1230.253906 646.886719 1232.109375 640.667969 1232.109375 632.59375 C 1232.109375 619.492188 1224.363281 612.941406 1208.878906 612.941406 Z M 1287.921875 729.867188 L 1290.304688 681.628906 L 1287.921875 592.890625 L 1362.378906 592.890625 L 1360.195312 614.132812 L 1315.519531 614.132812 L 1314.328125 649.269531 L 1354.039062 649.269531 L 1351.855469 670.3125 L 1313.535156 670.3125 L 1313.335938 678.253906 L 1314.726562 708.824219 L 1362.777344 708.824219 L 1360.589844 729.867188 Z M 1287.921875 729.867188 " fill-opacity="1" fill-rule="nonzero"/></svg>